<svg xmlns="http://www.w3.org/2000/svg" viewBox="0 0 32 32">
  <style>
    .logo {
      fill: #514DD7;
    }
    @media (prefers-color-scheme: dark) {
      .logo {
        fill: #9C9AF4;
      }
    }
  </style>
  <path class="logo" d="M15.976 29c1.528 0 2.959-.244 4.292-.732a13.776 13.776 0 003.659-2v2.39H29V16.025c0-1.788-.341-3.48-1.024-5.073a12.886 12.886 0 00-2.805-4.146 13.462 13.462 0 00-4.147-2.78C19.447 3.34 17.764 3 15.976 3c-1.789 0-3.472.341-5.05 1.024a13.162 13.162 0 00-4.121 2.78c-1.17 1.172-2.098 2.554-2.78 4.147A12.743 12.743 0 003 16.024c0 1.789.341 3.472 1.024 5.05a13.162 13.162 0 002.78 4.121 13.162 13.162 0 004.123 2.78c1.577.684 3.26 1.025 5.049 1.025zm0-5.073a7.595 7.595 0 01-3.098-.634 8.181 8.181 0 01-2.512-1.708 8.181 8.181 0 01-1.707-2.512 7.477 7.477 0 01-.635-3.049c0-1.105.212-2.138.635-3.097a8.181 8.181 0 011.707-2.512 8.181 8.181 0 012.512-1.708 7.595 7.595 0 013.098-.634c1.105 0 2.138.212 3.097.634.96.423 1.797.992 2.512 1.708a8.181 8.181 0 011.708 2.512c.422.96.634 1.992.634 3.097 0 1.074-.212 2.09-.634 3.05a8.181 8.181 0 01-1.708 2.511 8.181 8.181 0 01-2.512 1.708 7.595 7.595 0 01-3.097.634z" fill-rule="nonzero"/>
</svg>
